
<svg xmlns="http://www.w3.org/2000/svg" 
height="190"
width="200">
    <symbol id="logo-fishhand" viewBox="0 0 700 700">
    <path d="M275.2 38.4c-10.6-8-25-8.5-36.3-1.5S222 57.3 224.6 70.3l9.7 48.6c-19.4 9-36.9 
    19.9-52.4 31.5c-15.3 11.5-29 23.9-40.7 36.3L48.1 132.4c-12.5-7.3-28.4-5.3-38.7 4.9S-3 
    163.3 4.2 175.9L50 256 4.2 336.1c-7.2 12.6-5 28.4 5.3 38.6s26.1 12.2 38.7 4.9l93.1-54.3c11.8 
    12.3 25.4 24.8 40.7 36.3c15.5 11.6 33 22.5 52.4 31.5l-9.7 48.6c-2.6 13 3.1 26.3 14.3 33.3s25.6 
    6.5 36.3-1.5l77.6-58.2c54.9-4 101.5-27 137.2-53.8c39.2-29.4 67.2-64.7 81.6-89.5c5.8-9.9 5.8-22.2 
    0-32.1c-14.4-24.8-42.5-60.1-81.6-89.5c-35.8-26.8-82.3-49.8-137.2-53.8L275.2 38.4zM384 256a32 32 
    0 1 1 64 0 32 32 0 1 1 -64 0z"

    fill="none"
    stroke="#3783ca"
    stroke-width="25"
    stroke-linejoin="round"
    stroke-linecap="round"
    />

     <path d="M192 0c17.7 0 32 14.3 32 32V144H160V32c0-17.7 14.3-32 32-32zM64 64c0-17.7 14.3-32 
    32-32s32 14.3 32 32v80H64V64zm192 0c0-17.7 14.3-32 32-32s32 14.3 32 32v96c0 17.7-14.3 32-32 
    32s-32-14.3-32-32V64zm96 64c0-17.7 14.3-32 32-32s32 14.3 32 32v64c0 17.7-14.3 
    32-32 32s-32-14.3-32-32V128zm-96 88l0-.6c9.4 5.4 20.3 8.6 32 8.6c13.2 0 25.4-4 35.6-10.8c8.7 
    24.9 32.5 42.8 60.4 42.8c11.7 0 22.6-3.1 32-8.6V256c0 52.3-25.1 98.8-64 128v96c0 17.7-14.3 
    32-32 32H160c-17.7 0-32-14.3-32-32V401.6c-17.3-7.9-33.2-18.8-46.9-32.5L69.5 357.5C45.5 
    333.5 32 300.9 32 267V240c0-35.3 28.7-64 64-64h88c22.1 0 40 17.9 40 40s-17.9 40-40 
    40H128c-8.8 0-16 7.2-16 16s7.2 16 16 16h56c39.8 0 72-32.2 72-72z"

    fill="black"
    stroke="black"
    opacity="0.4"
    stroke-width="15" 
    stroke-linejoin="round"
    stroke-linecap="round"
    />
    </symbol>
</svg>